<svg xmlns="http://www.w3.org/2000/svg" width="1000" height="733.076"><path d="M27.34 319.286v733.076h410.431V913.78l61.576 138.338 61.575-138.35v138.594h410.431v-526.96H916.4V319.286h-72.96v269.56h-11.268v-63.444h-62.193v-40.624h62.193v-63.2h-62.193v-40.623h62.193v-61.669H646.996l-18.075 138.187-12.212-138.187h-65.535l36.85 269.56H566.74c-.217-.018-2.925-.29-6.517-4.187-3.737-4.055-8.037-12.24-6.918-29.995l.012-.187V507.21c0-7.397-.381-17.703-4.775-27.964-3.376-7.882-9.377-15.593-18.774-21.517 8.258-6.779 13.769-15.41 17.132-24.632 4.442-12.184 5.45-25.382 5.317-37.776-.23-21.513-3.17-40.376-13.79-54.349-10.62-13.973-28.654-21.686-55.28-21.686h-77.008V567.86l-48.834-248.573h-72.657l-50.761 258.385V319.286h-74.445l-26.956 109.24-23.788-109.24H27.34Zm11.926 11.926H99.09l27.206 124.945 11.618.157 30.869-125.102h53.178v269.56h19.543l52.957-269.56h53.033l52.957 269.56h17.615v-269.56h65.081c24.432 0 37.723 6.375 45.783 16.981 8.06 10.606 11.148 26.814 11.367 47.256.125 11.626-.922 23.472-4.6 33.56-3.679 10.088-9.72 18.398-20.388 24.143l-11.192 6.027 11.792 4.752c12.449 5.019 18.34 12.226 21.674 20.014 3.336 7.789 3.809 16.34 3.809 23.264v47.082l.012-.379c-1.26 19.988 3.812 32.061 10.05 38.83 6.24 6.768 13.883 7.978 13.883 7.978l.39.052h35.965l-36.85-269.56h40.95l16.043 181.553 11.85.25 23.777-181.803h38.853l-44.292 269.56h67.358v-269.56h100.865v37.817h-62.193v64.475h62.193v39.348h-62.193v64.476h62.193v63.444h35.12v-269.56h49.108v206.116h54.954v503.108H572.85V885.717l-11.414-2.428-62.088 139.503-62.094-139.503-11.408 2.428v154.72H39.267V331.211Zm668.188 5.789v251.845h-41.387zM475.68 370.153c-2.586-.458-5.345-.473-8.252.075l-4.856.915v68.243l4.42 1.182c8.75 2.344 17.635-1.412 23.776-8.054 6.142-6.641 10.063-16.32 10.063-27.41 0-6.356-2.296-14.78-7.39-22.484-3.82-5.777-10.004-11.095-17.761-12.467zm-160.618 5.153-17.51 132.928H344.4l-17.51-132.928Zm159.436 6.68c3.692.762 6.446 3.358 8.997 7.215 3.56 5.384 5.41 13.172 5.41 15.903 0 8.248-2.998 15.096-6.895 19.31-2.442 2.64-4.992 3.829-7.512 4.368zm-153.52 39.761 9.819 74.561h-19.642Zm-233.898 15.14-11.734 1.486v162.4h53.843Zm87.058 0-42.108 163.885h53.848v-162.4Zm298.164 35.703a34.664 34.664 0 0 0-4.286.105l-5.444.472v127.605h50.104v-11.926c-1.233 0-1.51-.142-2.54-1.531-1.029-1.39-2.182-4.15-2.964-7.687-1.563-7.072-1.84-16.952-1.84-25.337v-47.21c0-7.386-3.012-15.326-8.543-22.023-5.53-6.697-13.99-12.071-24.487-12.468zm2.196 12.63c5.366.948 9.854 3.506 13.096 7.431 3.802 4.604 5.812 10.604 5.812 14.43v47.21c0 8.586.148 18.967 2.125 27.91.512 2.313 1.153 4.534 1.998 6.645h-23.031zm-300.546.31v103.316h-26.542Zm-86.68.023 26.537 103.294H87.273Zm206.54 51.222-.68 5.189-7.705 58.809h71.103l-8.392-63.998zm10.465 11.926h33.397l5.258 40.146H299.02z" style="color:#000;font-style:normal;font-variant:normal;font-weight:400;font-stretch:normal;font-size:medium;line-height:normal;font-family:sans-serif;text-indent:0;text-align:start;text-decoration:none;text-decoration-line:none;text-decoration-style:solid;text-decoration-color:#000;letter-spacing:normal;word-spacing:normal;text-transform:none;writing-mode:lr-tb;direction:ltr;baseline-shift:baseline;text-anchor:start;white-space:normal;clip-rule:nonzero;display:inline;overflow:visible;visibility:visible;opacity:1;isolation:auto;mix-blend-mode:normal;color-interpolation:sRGB;color-interpolation-filters:linearRGB;solid-color:#000;solid-opacity:1;fill:#000;fill-opacity:1;fill-rule:evenodd;stroke:none;stroke-width:11.92609215;stroke-linecap:butt;stroke-linejoin:miter;stroke-miterlimit:4;stroke-dasharray:none;stroke-dashoffset:0;stroke-opacity:1;color-rendering:auto;image-rendering:auto;shape-rendering:auto;text-rendering:auto;enable-background:accumulate" transform="translate(0 -319.286)"/><path d="M33.3 325.248v721.15h398.506V885.716l67.538 151.738 67.539-151.738v160.682h398.505V531.363h-54.955V325.248H849.4v269.56h-23.194v-63.445h-62.192v-52.55h62.192V427.54h-62.192v-52.55h62.192v-49.742H713.414v269.56h-54.372l44.298-269.56h-51.111L627.77 512.24l-16.52-186.992h-53.243l36.85 269.56h-28.744s-21.142-2.776-18.763-40.518v-47.082c0-14.32-1.701-37.711-29.215-48.805 24.015-12.933 28.378-39 28.12-63.02-.449-41.954-12.054-70.135-63.112-70.135H412.1v269.56h-6.744L352.4 325.248h-62.845l-52.957 269.56h-8.676v-269.56h-63.812l-31.987 129.638-28.231-129.638Zm461.566 79.855c0 19.337-13.822 33.057-26.333 29.704v-58.722c18.048-3.403 26.333 19.93 26.333 29.018zm-173.89-29.018 16.626 126.185h-33.25ZM81.309 438.371 121.5 594.808H81.308Zm98.606 0v156.437H139.72zm292.166 40.175c17.245.651 27.287 17.32 27.287 28.534v47.21c0 16.97.858 40.518 13.307 40.518h-44.14V478.633a28.531 28.531 0 0 1 3.545-.087zm-173.034 64.19h43.861l6.825 52.072h-57.51z" style="fill:red;fill-opacity:1;fill-rule:evenodd;stroke:none;stroke-width:2.98152304px;stroke-linecap:butt;stroke-linejoin:miter;stroke-opacity:1" transform="translate(0 -319.286)"/><path d="M938.277 594.157c-5.96-.027-12.271 1.237-18.664 4.036-21.612 9.463-52.073 30.84-77.042 57.33-3.583-16.627-9.345-29.15-17.359-37.438-9.814-10.15-23.044-13.534-36.081-10.779-23.476 4.96-39.276 12.728-74.934 43.715-19.982 17.365-37.826 41.765-53.039 67.527 2.092-20.761 4.134-40.187 7.588-74.777 1.231-12.327 1.117-21.234-.437-28.114-1.553-6.88-5.124-12.19-10.22-14.582-5.095-2.392-10.398-1.893-15.437-.89-5.039 1.002-10.108 2.667-15.135 4.035-8.088 2.2-17.405 6.572-25.215 13.283-7.81 6.71-14.22 16.12-14.663 27.73-.03.76-.327 1.44-.413 2.16-1.546-2.887-3.28-5.61-5.526-7.89-9.112-9.254-22.523-10.092-38.05-8.584-14.304 1.39-23.984 6.812-30.287 14.122-6.302 7.31-9.384 15.855-12.828 23.672-4.13 8.892-11.152 24.398-19.194 39.482-3.985-18.993-5.979-40.116-8.746-54.058l-.07-.355-.117-.35c-1.39-4.216-2.75-10.186-8.246-14.663s-13.66-6.43-26.99-6.295c-15.804.16-25.945 12.431-31.743 23.276-5.507 10.3-7.66 19.818-7.88 20.807-.128.33-10.938 29.459-19.804 59.834-4.812-9.202-10.19-17.237-17.26-22.827-10.54-8.335-23.753-12.436-40.164-13.912-17.683-1.591-36.903 5.188-54.657 15.961-17.754 10.774-34.066 25.687-45.468 41.631-22.581 31.577-27.164 76.74-33.781 101.727-24.646 14.7-52.104 21.272-76.605 21.75-5.157.1-8.857-1.459-12.014-4.228-3.157-2.769-5.687-6.946-7.29-11.996-3.209-10.098-2.376-23.428 2.113-32.657 4.86-9.992 15.484-25.236 26.712-38.818 9.14-11.056 18.276-20.072 25.156-25.651 2.787 5.516 6.007 11.738 11.915 16.584a22.316 22.316 0 0 0 16.247 4.95c6.411-.6 13.296-3.583 21.342-9.235 17.278-12.139 20.043-32.294 17.452-50.873-2.59-18.579-10.072-36.935-14.18-49.055-2.383-7.034-5.967-12.5-10.772-16.096-4.806-3.595-10.628-5.071-16.451-4.95-11.646.244-23.801 5.997-36.343 13.65-24.221 14.78-57.197 34.244-98.717 92.282C15.274 792.174-4.45 836.132.885 877.472c5.26 40.747 28.051 60.987 44.676 74.456 18.47 14.964 45.214 18.11 70.351 16.166 25.138-1.945 48.729-8.968 62.461-17.284 12.052-7.298 19.355-9.867 24.737-15.938 2.691-3.036 4.335-7.026 4.892-11.396.082-.645-.09-1.658-.041-2.33 8.801 7.41 16.563 13.492 25.355 16.964 12.054 4.76 26.034 5.373 49.428 3.534 24.783-1.948 46.085-14.14 61.697-28.697 14.011-13.064 23.315-27.657 26.764-40.408 2.394.684 8.19 2.451 16.666 3.704 3.794.56 9.451 3.247 16.463 1.036 3.506-1.105 6.809-3.764 9.142-7.512 2.334-3.747 4.011-8.562 5.352-15.088 3.687-17.942 12.141-48.784 20.12-71.352.096 5.681 0 11.963.006 25.674 0 6.37-.889 14.97 4.163 22.373 2.526 3.703 6.834 6.589 12.113 7.635 5.278 1.046 11.497.607 19.356-1.281 13.135-3.156 22.096-11.162 29.157-24.353 6.766-11.122 12.072-22.57 17.563-33.67.212 10.311.697 20.483.624 27.328-.063 5.854-.943 11.73.838 17.849.89 3.059 2.743 6.227 5.678 8.443 2.935 2.216 6.621 3.424 10.953 3.937 8.398.993 18.741-.003 27.842-3.809 4.55-1.902 8.822-4.547 12.118-8.344 3.296-3.798 5.468-8.895 5.462-14.553-.009-7.757 1.474-34.522 3.488-59.997.279-3.524.613-6.28.909-9.72.513 5.149 1.1 9.8 1.543 14.996 1.075 12.608 1.968 25.037 2.556 35.033.588 9.996.837 17.93.734 20.108-.285 6.02-1.29 17.544 2.475 27.16 1.883 4.807 5.753 9.709 11.757 11.064 6.004 1.354 12.516-.65 20.096-5.346 6.538-4.051 10.188-5.805 13.633-7.833 7.15-4.208 10.822-11.273 12.263-18.809 1.175-6.14.74-12.583.472-18.617a105.995 105.995 0 0 0 15.81 14.285c12.84 9.448 29.362 17.235 47.705 17.312 22.712.097 53.27-5.936 72.634-19.263 8.728-6.008 17.438-11.822 24.51-18.437 7.072-6.614 12.737-14.334 13.865-23.88 1.335-11.302.822-19.484-1.607-25.769-2.43-6.285-7.584-10.496-12.986-11.5-10.805-2.011-20.431 4.5-26.723 9.91-10.963 9.428-18.84 16.88-39.121 20.277-8.395 1.406-13.243-1.988-15.99-8.846-2.749-6.858-2.29-17.71 4.396-29.285 12.412-21.49 29.668-32.454 41.741-39.51a291.91 291.91 0 0 0 4.985 6.754c2.812 3.677 6.451 7.458 11.984 10.808 6.207 3.76 13.858 5.266 21.39 4.39a30.912 30.912 0 0 0 11.762-3.877c.512 2.172.977 4.807 1.73 6.883 1.778 4.904 4.858 9.522 10.138 14.354 7.539 6.9 18.815 7.357 30.619 7.594 11.803.236 24.228-.725 32.29-.99 7.97-.262 13.235.398 15.6 1.223 1.07.373 1.331.648 1.392.704.039 1.57-.416 2.95-1.98 4.857-1.591 1.942-4.32 4.146-7.861 6.312-7.08 4.333-17.229 8.5-27.265 12.76-5.598 2.375-12.412 4.595-18.098 4.792-8.926.308-18.477 2.398-25.035 9.754-6.558 7.355-8.832 18.882-5.91 34.864 2.042 11.17 4.931 19.088 9.37 24.737 4.438 5.649 10.77 8.49 16.963 8.834 12.384.687 24.663-5.585 38.532-9.358 15.417-4.195 40.827-15.048 62.554-31.574 21.727-16.526 40.25-39.37 37.607-67.078-2.467-25.85-11.589-39.146-22.833-44.688-11.245-5.543-22.994-3.476-28.727-3.552-5.106-.07-9.91-.406-14.505-.874-3.387-.345-6.07-1.03-7.53-1.852-1.46-.822-1.972-1.303-2.393-3.4-.18-.89-.003-1.903 1.403-3.786 1.407-1.882 3.982-4.161 7.087-6.277 6.21-4.232 14.372-7.901 19.35-9.993 4.576-1.922 9.17-3.058 13.488-4.356 4.317-1.297 8.766-2.585 12.1-6.697 3.806-4.692 4.424-10.494 3.716-15.21-.709-4.716-2.539-8.758-4.135-11.78-6.669-12.631-20.616-23.93-38.492-24.01zm-.052 11.926c12.77.058 23.187 8.544 27.998 17.656 1.245 2.359 2.5 5.391 2.888 7.978.389 2.587.115 4.316-1.188 5.923-.334.411-2.419 1.639-6.266 2.795-3.846 1.156-9.047 2.41-14.674 4.775-5.225 2.195-13.929 6.016-21.447 11.14-3.76 2.562-7.263 5.43-9.923 8.99-2.66 3.562-4.543 8.288-3.54 13.272 1.027 5.112 4.344 9.254 8.227 11.443 3.884 2.189 8.059 2.905 12.177 3.325 4.857.495 10.025.858 15.554.932 7.835.105 16.574-1.138 23.608 2.33 7.033 3.466 13.98 11.5 16.235 35.125 2.077 21.769-12.837 41.15-32.954 56.451-20.118 15.302-44.958 25.88-58.46 29.553-15.05 4.095-27.591 9.36-34.748 8.962-3.578-.198-5.697-1.056-8.24-4.291-2.542-3.236-5.165-9.393-7.017-19.52-2.557-13.987-.316-20.975 3.075-24.778 3.391-3.804 9.223-5.518 16.55-5.771 8.258-.286 16.12-3.092 22.35-5.736 9.914-4.207 20.39-8.401 28.825-13.562 4.217-2.58 7.969-5.4 10.86-8.928 2.892-3.527 4.889-8.041 4.711-12.939-.09-2.499-1.069-5.238-2.841-7.262-1.773-2.023-4.072-3.306-6.58-4.18-5.018-1.749-11.25-2.166-19.916-1.882-8.575.282-20.686 1.205-31.662.985-10.975-.22-20.722-2.562-22.804-4.467-4.34-3.972-5.786-6.324-6.982-9.62-1.195-3.296-1.956-7.979-3.727-15.082l-2.3-9.224 7.378-8.654c24.682-28.955 59.509-53.294 81.002-62.705 4.975-2.178 9.576-3.054 13.83-3.034zm-285.202 5.789c1.332.625 2.584 1.685 3.651 6.411 1.068 4.726 1.372 12.665.21 24.306-4.782 47.893-8.658 81.126-10.552 103.929l11.245 3.22c17.454-33.89 39.922-68.413 64.44-89.72 35.14-30.536 47.35-36.352 69.577-41.048 9.814-2.074 17.83-.056 25.046 7.407 7.217 7.463 13.406 21.147 16.305 42.382l1.31 9.597-6.597 9.346c-2.571 3.642-6.786 5.719-11.7 6.29-4.913.57-10.284-.59-13.83-2.737-4.22-2.556-6.407-4.873-8.688-7.856-2.281-2.983-4.584-6.776-8.304-11.216l-3.22-3.849-4.344 2.522c-11.478 6.664-34.935 19.356-50.657 46.574-8.161 14.13-9.595 28.577-5.142 39.692 4.453 11.114 15.901 18.365 29.035 16.165 22.778-3.815 34.087-13.674 44.92-22.99 4.607-3.961 13.276-7.883 16.772-7.233 1.747.325 2.742.716 4.041 4.077 1.3 3.36 2.096 9.868.891 20.067-.666 5.64-4.156 10.945-10.173 16.573-6.017 5.627-14.331 11.272-23.124 17.324-15.681 10.792-45.46 17.248-65.821 17.161-14.955-.063-29.286-6.598-40.687-14.989-11.402-8.39-19.82-18.889-22.525-24.504l-6.68-13.871-4.407 14.756c-1.838 6.152-1.469 12.667-1.2 18.96.269 6.294.512 12.368-.25 16.352-1.091 5.704-2.496 8.355-6.604 10.773-2.794 1.645-6.95 3.687-13.865 7.972-6.188 3.835-9.788 4.165-11.187 3.85-1.398-.316-2.224-1.086-3.278-3.78-2.11-5.387-1.96-16.16-1.672-22.245.184-3.875-.138-11.246-.733-21.371-.596-10.125-1.496-22.637-2.58-35.347-2.168-25.422-4.744-50.749-7.89-61.646l-4.688-16.24-6.54 15.594c-1.034 2.467-1.43 4.903-2.02 8.479-.592 3.575-1.182 7.999-1.765 13.055-1.165 10.114-2.31 22.728-3.325 35.557-2.03 25.658-3.533 51.766-3.523 60.953.003 2.814-.848 4.765-2.545 6.72s-4.387 3.77-7.71 5.16c-6.646 2.778-15.694 3.696-21.837 2.97-2.939-.348-4.433-1.056-5.171-1.614-.74-.558-1.054-1.019-1.416-2.26-.722-2.48-.437-7.865-.366-14.389.134-12.476.156-37.545-1.177-50.377l-1.665-16.06-9.172 13.288c-12.176 17.641-18.55 37.263-28.37 53.347l-.094.146-.081.157c-6.22 11.662-11.117 15.978-21.494 18.471-6.823 1.64-11.474 1.727-14.25 1.177s-3.704-1.383-4.577-2.662c-1.745-2.558-2.089-8.951-2.09-15.653-.006-16.403.317-24.988-.024-31.603-.34-6.615-1.577-11.358-4.187-17.807l-5.066-12.509-5.841 12.171c-10.648 22.189-23.485 68.055-28.616 93.027-1.168 5.686-2.593 9.263-3.79 11.187-1.199 1.923-1.863 2.212-2.604 2.445-1.48.467-5.434-.618-11.14-1.461-8.926-1.32-18.145-4.036-18.145-4.036l-.024-.006-.018-.006s-1.365-.483-3.348-.407c-.992.037-2.33.168-3.92 1.123-1.589.956-3.11 3.112-3.435 5.102-1.477 9.025-10.341 24.884-24.417 38.008-14.076 13.125-33.085 23.852-54.5 25.535-22.805 1.793-34.672.985-44.112-2.742-9.44-3.728-17.577-10.963-32.028-23.323l-11.134-9.52 1.322 14.592c.562 6.21.666 10.49.32 13.202-.345 2.71-.848 3.701-1.991 4.99-2.286 2.579-9.392 6.027-21.989 13.656-10.917 6.61-33.783 13.777-57.202 15.589-23.419 1.812-47.332-1.717-61.925-13.54-16.325-13.226-35.576-29.695-40.355-66.722-4.703-36.436 13.619-78.734 31.964-104.377 40.537-56.664 70.843-74.149 95.234-89.032 11.764-7.179 22.802-11.75 30.38-11.909 3.789-.08 6.59.724 9.055 2.568 2.465 1.845 4.796 4.976 6.627 10.377 4.321 12.751 11.362 30.392 13.661 46.878 2.3 16.486.324 30.463-12.496 39.47-7.003 4.92-12.158 6.793-15.601 7.116-3.443.323-5.382-.5-7.57-2.294-4.376-3.59-8.018-12.29-12.584-19.765l-3.122-5.118-5.1 3.156c-9.494 5.872-21.377 18.33-33.019 32.412-11.641 14.083-22.527 29.456-28.243 41.206-6.087 12.514-6.99 28.162-2.76 41.48 2.115 6.658 5.594 12.795 10.79 17.353 5.197 4.557 12.196 7.334 20.114 7.18 27.124-.53 57.47-7.748 84.711-24.61l1.975-1.222.628-2.23c7.554-26.875 12.272-72.064 32.535-100.4 10.3-14.404 25.633-28.467 41.963-38.375 16.33-9.91 33.632-15.518 47.401-14.28 15.043 1.354 25.571 4.864 33.834 11.397 8.262 6.534 14.649 16.468 20.282 31.801l6.639 18.058 4.74-18.646c8.771-34.504 23.992-73.467 23.992-73.467l.175-.442.099-.466s2.06-9.27 6.935-18.39c4.876-9.12 11.756-16.878 21.342-16.975 12.06-.122 17.17 1.855 19.34 3.622 2.093 1.705 2.842 4.271 4.309 8.747 3.149 16.044 5.26 45.951 12.636 69.699l3.844 12.38 6.9-10.977c12.328-19.618 22.037-43.394 27.079-54.238l.023-.053.03-.058c3.62-8.213 6.483-15.518 10.942-20.69 4.46-5.172 10.365-8.863 22.408-10.033 14.42-1.401 23.232-.172 28.4 5.078 3.674 3.73 7.17 13.2 10.063 24.131l11.71-1.071c.782-10.098 4.191-14.943 4.584-25.25.285-7.498 4.38-13.861 10.51-19.13 6.132-5.268 14.192-9.082 20.574-10.82 5.391-1.466 10.35-3.06 14.337-3.854 3.988-.794 6.71-.631 8.042-.006zM309.525 762.718c-9.636.453-19.346 6.49-28.557 14.174-9.212 7.683-17.502 17.167-21.582 26.828l-.075.186-.064.186c-4.26 12.327-8.205 25.655-8.077 37.625.064 5.984 1.17 11.801 4.39 16.73 3.221 4.929 8.64 8.525 15.368 9.917 13.531 2.8 26.6-3.487 36.67-12.666 10.069-9.178 17.65-21.461 20.532-33.513l.012-.04.012-.041c2.185-9.74 3.288-21.377 2.295-31.935-.994-10.558-3.766-20.912-12.649-25.733-2.634-1.43-5.522-1.848-8.274-1.718zm.565 11.909c1.164-.055 1.769.154 2.02.29 2.666 1.447 5.63 7.507 6.464 16.37.833 8.85-.143 19.617-2.055 28.162-2.182 9.076-8.698 19.91-16.958 27.439-8.27 7.54-17.77 11.548-26.216 9.8-4.26-.881-6.29-2.456-7.797-4.763-1.508-2.307-2.403-5.788-2.452-10.33-.096-9.013 3.27-21.526 7.331-33.321 2.841-6.662 10.112-15.491 18.18-22.222 8.101-6.757 17.41-11.234 21.483-11.425z" style="color:#000;font-style:normal;font-variant:normal;font-weight:400;font-stretch:normal;font-size:medium;line-height:normal;font-family:sans-serif;text-indent:0;text-align:start;text-decoration:none;text-decoration-line:none;text-decoration-style:solid;text-decoration-color:#000;letter-spacing:normal;word-spacing:normal;text-transform:none;writing-mode:lr-tb;direction:ltr;baseline-shift:baseline;text-anchor:start;white-space:normal;clip-rule:nonzero;display:inline;overflow:visible;visibility:visible;opacity:1;isolation:auto;mix-blend-mode:normal;color-interpolation:sRGB;color-interpolation-filters:linearRGB;solid-color:#000;solid-opacity:1;fill:#000;fill-opacity:1;fill-rule:evenodd;stroke:none;stroke-width:11.92609215;stroke-linecap:butt;stroke-linejoin:miter;stroke-miterlimit:4;stroke-dasharray:none;stroke-dashoffset:0;stroke-opacity:1;color-rendering:auto;image-rendering:auto;shape-rendering:auto;text-rendering:auto;enable-background:accumulate" transform="translate(0 -319.286)"/><path style="fill:#ff0;fill-opacity:1;fill-rule:evenodd;stroke:none;stroke-width:1.19260919;stroke-linecap:butt;stroke-linejoin:miter;stroke-miterlimit:4;stroke-dasharray:none;stroke-opacity:1" d="M938.251 600.117c-5.107-.023-10.563 1.047-16.247 3.535-22.733 9.954-57.762 34.516-83.15 64.3-6.009-44.007-25.64-59.642-48.491-54.814-22.852 4.829-36.857 11.62-72.255 42.382-25.546 22.2-48.186 57.226-65.833 91.49 1.878-22.61 5.754-55.891 10.54-103.83 4.787-47.937-12.9-38.873-33.734-33.204-14.47 3.938-34.754 16.373-35.481 35.482-.338 8.887-3.709 13.864-4.571 25.016-2.939-11.1-6.153-21.278-11.577-26.787-7.14-7.251-18.254-8.285-33.228-6.83-26.348 2.56-31.166 18.227-38.23 34.258-5.2 11.186-14.804 34.613-26.723 53.58-7.074-22.774-9.183-52.562-12.526-69.396-2.97-9.008-4.121-17.12-29.512-16.864-25.39.256-34.043 40.058-34.043 40.058s-15.307 39.114-24.219 74.171c-11.702-31.85-27.73-44.246-59.182-47.075-31.453-2.83-73.043 24.776-94.745 55.123-21.702 30.348-26.201 76.548-33.426 102.251-26.198 16.216-55.546 23.208-81.695 23.718-26.149.51-33.24-35.704-22.664-57.446 10.576-21.743 43.016-61.245 59.037-71.155 8.114 13.28 14.17 37.858 44.268 16.713 30.098-21.145 9.483-68.267 1.054-93.138-8.428-24.87-30.508-19.048-54.814-4.216-24.306 14.832-55.947 33.306-96.975 90.657-19.026 26.595-38.05 69.722-33.03 108.61 5.019 38.888 26.04 57.242 42.516 70.59 33.063 26.787 101.32 13.343 125.97-1.584 24.648-14.926 28.81-12.04 26.507-37.484 28.793 24.627 34.284 31.105 80.483 27.474 46.2-3.631 80.62-45.837 84.333-68.523.308-1.879 3.162-1.054 3.162-1.054s9.474 2.813 18.972 4.216c9.5 1.404 19.225 7.56 24.243-16.864 5.018-24.423 18.117-70.734 28.155-91.653 5.014 12.39 3.763 14.217 3.774 47.175.003 13.07-1.086 29.987 28.278 22.932 11.776-2.83 18.715-9.003 25.36-21.465 10.315-16.895 16.664-36.368 28.19-53.067 1.245 11.985 1.281 37.318 1.148 49.696-.133 12.377-2.33 22.528 12.211 24.248 14.541 1.72 38.773-3.834 38.754-20.778-.018-16.944 5.985-105.742 10.174-115.732 5.253 18.197 11.55 104.32 10.976 116.425-.573 12.106-2.305 44.59 25.233 27.527 6.727-4.168 10.63-6.066 13.749-7.902 5.629-3.314 8.167-8.172 9.433-14.791 1.968-10.288-1.472-25.412 1.31-34.73 6.854 14.231 35.26 42.723 68.558 42.865 21.537.09 51.705-6.15 69.227-18.21 17.522-12.06 34.042-22.92 35.837-38.107 5.08-43-20.612-31.506-31.51-22.135-10.898 9.372-20.492 18.028-42.02 21.634-21.53 3.606-32.59-21.291-17.744-46.994 14.846-25.703 36.828-37.631 48.49-44.403 6.817 8.137 8.719 14.435 18.472 20.341 9.752 5.906 26.042 5.337 33.49-5.212 3.418 13.717 2.847 18.857 12.467 27.66 9.62 8.805 42.05 5.59 58.687 5.044 16.637-.547 22.986 2.162 23.183 7.582.47 13.004-20.82 21.255-40.77 29.722-5.913 2.51-13.25 5.023-20.224 5.264-16.252.562-30.763 7.614-25.284 37.584 7.787 42.595 28.516 27.399 57.435 19.53 28.918-7.867 100.509-42.851 95.787-92.327-4.721-49.476-32.134-42.666-45.701-42.848-5.318-.071-10.304-.421-15.03-.903-7.505-.764-13.715-2.801-15.164-10.01-2.362-11.749 21.173-22.442 31.376-26.729 10.203-4.286 19.595-4.788 23.264-9.311 5.109-6.3 1.782-15.064-1.06-20.446-5.74-10.871-17.922-20.766-33.245-20.836zM309.808 768.673c1.958-.093 3.704.218 5.148 1.001 11.547 6.268 11.48 32.832 7.378 51.123-5.056 21.135-28.22 46.277-50.197 41.73-21.977-4.548-15.622-32.28-7.256-56.486 6.897-16.332 31.218-36.724 44.927-37.369z" transform="translate(0 -319.286)"/></svg>